<?xml version="1.0" encoding="utf-8"?>
<!-- Generator: Adobe Illustrator 18.1.0, SVG Export Plug-In . SVG Version: 6.00 Build 0)  -->
<svg version="1.1" id="Layer_1" xmlns="http://www.w3.org/2000/svg" xmlns:xlink="http://www.w3.org/1999/xlink" x="0px" y="0px"
	 viewBox="0 0 90 90" enable-background="new 0 0 90 90" xml:space="preserve">
<path d="M69.2,31.1H74v0.8h-4.8V31.1z M69.2,33.8H74V33h-4.8V33.8z M69.2,35.7H74v-0.8h-4.8V35.7z M76.9,29.4v26.5
	c0,1-0.8,1.9-1.9,1.9h-6.8c-0.2,0-0.4,0-0.6-0.1V78l0,0v0H42.9v-3.6c0.1-3.2,2.7-5.8,5.9-5.8c0,0,0,0,0.1,0V53.2l-9.4-9.4l0.8-0.8
	c-1.6-2.2-1.5-5.2,0.5-7.1l0.4-0.4l4.2,4.2l0,0l3.4,3.4v-1.2c0-1.9,0.5-3.6,1.5-5.2c-0.2-0.1-0.3-0.2-0.5-0.3l0,0l-0.2-0.1
	c0,0-0.1-0.1-0.1-0.1c-0.1-0.1-0.2-0.1-0.3-0.2c-0.4-0.3-0.8-0.6-1.2-1c0,0-0.1-0.1-0.1-0.1c-1.4-1.3-2.6-2.8-3.3-4.5
	c0,0,0-0.1,0-0.1c-0.1-0.2-0.1-0.3-0.2-0.5c0-0.1-0.1-0.1-0.1-0.2c-0.1-0.1-0.1-0.3-0.2-0.4c0-0.1-0.1-0.2-0.1-0.3
	c-0.1-0.2-0.1-0.4-0.2-0.6c0-0.2-0.1-0.3-0.1-0.5c0-0.1,0-0.2-0.1-0.3c0-0.2-0.1-0.3-0.1-0.5c0-0.1,0-0.2,0-0.3c0-0.2,0-0.3,0-0.5
	c0-0.1,0-0.2,0-0.2c0-0.3,0-0.5,0-0.8c0-0.2,0-0.4,0-0.6c0-0.1,0-0.2,0-0.3c0-0.1,0-0.2,0-0.3c0-0.1,0-0.2,0-0.3c0-0.1,0-0.1,0-0.2
	c0-0.1,0-0.3,0.1-0.4c0,0,0-0.1,0-0.1c0.2-0.9,0.4-1.8,0.8-2.6c0,0,0,0,0-0.1c0.1-0.1,0.1-0.3,0.2-0.4c0-0.1,0.1-0.1,0.1-0.2
	c0.1-0.1,0.1-0.2,0.2-0.3c0-0.1,0.1-0.2,0.1-0.3c0-0.1,0.1-0.2,0.1-0.2c0.1-0.1,0.2-0.3,0.3-0.4c0,0,0,0,0-0.1
	c0.3-0.5,0.7-1,1.1-1.5l0.2-0.2l0,0c2.5-2.9,6.2-4.7,10.3-4.7c7.5,0,13.5,5.9,13.5,13.2c0,0.8-0.1,1.6-0.2,2.3H75
	C76.1,27.5,76.9,28.4,76.9,29.4z M58.5,24.9c0-2.5-0.7-3.8-1.2-4.3c0,0-0.1-0.1-0.1-0.2l-0.1-0.1c-0.6-0.6-3-2.4-8.9-2.4
	c0,0-0.4,0-1,0c-0.2,0.2-0.3,0.4-0.5,0.6c0,0,0,0,0,0c-0.1,0.1-0.2,0.3-0.3,0.4c0,0,0,0.1,0,0.1c-0.1,0.1-0.2,0.3-0.2,0.4
	c0,0,0,0.1-0.1,0.1c-0.1,0.1-0.1,0.2-0.2,0.3c-0.1,0.2-0.2,0.4-0.3,0.5c0,0,0,0,0,0.1c-0.1,0.1-0.1,0.3-0.2,0.4c0,0,0,0,0,0.1
	c-0.1,0.1-0.1,0.3-0.2,0.4c0,0,0,0,0,0c-0.2,0.6-0.4,1.2-0.5,1.8c0,0,0,0,0,0.1c0,0.1,0,0.2-0.1,0.4c0,0.1,0,0.1,0,0.2
	c0,0.1,0,0.2,0,0.3c0,0.1,0,0.2,0,0.3c0,0.1,0,0.2,0,0.2c0,0.2,0,0.4,0,0.6c0,0.2,0,0.5,0,0.7c0,0.1,0,0.1,0,0.2c0,0.2,0,0.3,0,0.5
	c0,0.1,0,0.2,0,0.3c0,0.1,0,0.3,0.1,0.4c0,0.1,0,0.2,0,0.3c0,0.1,0.1,0.3,0.1,0.4c0,0.1,0,0.2,0.1,0.3c0,0.2,0.1,0.3,0.1,0.5
	c0.1,0.2,0.1,0.3,0.2,0.5c0,0.1,0,0.1,0.1,0.2c0.1,0.1,0.1,0.3,0.2,0.4c0,0,0,0.1,0.1,0.1c0.1,0.2,0.1,0.3,0.2,0.5c0,0,0,0,0,0
	c0.7,1.4,1.6,2.6,2.7,3.6c0,0,0.1,0,0.1,0.1c0.1,0.1,0.2,0.2,0.3,0.3c0.1,0.1,0.1,0.1,0.2,0.1c0.1,0.1,0.2,0.2,0.3,0.2
	c0.1,0.1,0.2,0.2,0.3,0.2c0.1,0,0.1,0.1,0.2,0.1C54.9,34.2,58.5,29.9,58.5,24.9z M41.2,42.1l2.5-2.5l-2.4-2.4
	C40.1,38.6,40.1,40.6,41.2,42.1z M50.2,52.9c0.5,0.5,1.3,0.9,2.1,0.9c0.8,0,1.5-0.3,2.1-0.9l5.9-5.9c1.1-1.1,1.1-3,0-4.1
	c-0.5-0.5-1.3-0.9-2.1-0.9c-0.8,0-1.5,0.3-2.1,0.9l-4.6,4.6l-7-7l-3.3,3.3L50.2,52.9z M46.9,75.2h-2.6v1.5h2.6V75.2z M47.1,74
	c0.2-1.7,1-3.2,2.3-4.2c-0.2,0-0.4,0-0.6,0c-2.4,0-4.4,1.9-4.6,4.3H47.1z M48.3,74h9.3c-0.2-1.9-1.5-3.4-3.2-4
	c-0.2-0.1-0.4-0.1-0.7-0.2c-0.2,0-0.4-0.1-0.7-0.1c0,0-0.1,0-0.1,0c-0.2,0-0.4,0-0.6,0c-0.5,0.1-1,0.2-1.5,0.5
	C49.5,71,48.5,72.4,48.3,74z M66.4,75.2h-18v1.5h18V75.2z M66.4,56c0,0,0-0.1,0-0.1V41.4c-0.1-1.9-0.8-3.7-2-5.1
	c-2.1,1.4-4.7,2.2-7.4,2.2c-2,0-3.9-0.4-5.5-1.2c-0.9,1.4-1.3,3-1.3,4.6v2.4l1.5,1.5l3.7-3.7c0.8-0.8,1.8-1.2,2.9-1.2
	c1.1,0,2.1,0.4,2.9,1.2c0.8,0.8,1.2,1.8,1.2,2.9c0,1.1-0.4,2.1-1.2,2.9l-5.9,5.9c-0.8,0.8-1.8,1.2-2.9,1.2c-0.8,0-1.6-0.2-2.2-0.7
	v14.4c0.3,0.1,0.6,0.1,0.8,0.3c0.7-0.3,1.4-0.4,2.1-0.4c0,0,0.1,0,0.1,0v-9.9h1.3v10.1c2.4,0.6,4.2,2.7,4.4,5.3h7.5V56z M66.3,37.1
	v-2.4c-0.3,0.3-0.7,0.6-1,0.9C65.7,36,66,36.5,66.3,37.1z M69.2,25.2c0-6.6-5.5-11.9-12.3-11.9c-3.3,0-6.3,1.3-8.5,3.4
	c6.1,0,8.8,1.9,9.6,2.8l0.1,0.1c0.1,0.1,0.2,0.2,0.2,0.3c0.6,0.8,1.4,2.3,1.4,5.1c0,5.2-3.3,9.6-8.1,11.1c1.6,0.7,3.4,1.1,5.2,1.1
	C63.7,37.2,69.2,31.8,69.2,25.2z M75.6,29.4c0-0.3-0.3-0.6-0.6-0.6h-5.1c-0.5,1.7-1.3,3.2-2.3,4.5v22.6c0,0.3,0.3,0.6,0.6,0.6H75
	c0.3,0,0.6-0.3,0.6-0.6V29.4z M38.9,28.5v5.9c0,0.3-0.2,0.6-0.5,0.6c-6.2,0.2-10.8,1.3-14.5,3.4c-0.1,0-0.2,0.1-0.3,0.1
	c-0.1,0-0.2,0-0.3-0.1c-0.2-0.1-0.3-0.3-0.3-0.5V25c0-0.2,0.1-0.4,0.3-0.5c0.1-0.1,0.2-0.1,0.3-0.1c0.1,0,0.2,0,0.3,0.1
	c3.8,2.1,8.4,3.2,14.5,3.4C38.6,27.9,38.9,28.2,38.9,28.5z M37.6,29.2c-5.5-0.3-9.8-1.3-13.4-3v10.7c3.6-1.8,7.9-2.7,13.4-3V29.2z
	 M40,34.4v-5.9c0-0.3,0.3-0.6,0.6-0.6c1.9,0,3.5,1.6,3.5,3.5c0,1.9-1.6,3.5-3.5,3.5C40.2,35,40,34.7,40,34.4z M41.2,33.6
	c0.9-0.3,1.6-1.1,1.6-2.1c0-1-0.7-1.9-1.6-2.1V33.6z M17.8,37.5c-2.1-1.3-3.4-3.6-3.4-6s1.3-4.8,3.4-6c0.3-0.2,0.4-0.6,0.2-0.9
	c-0.2-0.3-0.6-0.4-0.9-0.2c-2.5,1.5-4.1,4.2-4.1,7.1s1.6,5.6,4.1,7.1c0.1,0.1,0.2,0.1,0.3,0.1c0.2,0,0.4-0.1,0.5-0.3
	C18.2,38,18.1,37.7,17.8,37.5z M20.9,27.8c0.3-0.2,0.4-0.6,0.2-0.9c-0.2-0.3-0.6-0.4-0.9-0.2c-1.7,1-2.7,2.8-2.7,4.7
	c0,1.9,1,3.7,2.7,4.7c0.1,0.1,0.2,0.1,0.3,0.1c0.2,0,0.4-0.1,0.5-0.3c0.2-0.3,0.1-0.7-0.2-0.9c-1.3-0.8-2.1-2.1-2.1-3.6
	C18.8,30,19.6,28.6,20.9,27.8z"/>
</svg>
