<?xml version="1.0" encoding="utf-8"?>
<!-- Generator: Adobe Illustrator 18.1.0, SVG Export Plug-In . SVG Version: 6.00 Build 0)  -->
<svg version="1.1" id="Layer_1" xmlns="http://www.w3.org/2000/svg" xmlns:xlink="http://www.w3.org/1999/xlink" x="0px" y="0px"
	 viewBox="0 0 90 90" enable-background="new 0 0 90 90" xml:space="preserve">
<path fill="#231F20" d="M62.1,33h-4.8v-0.8h4.8V33z M62.1,34.1h-4.8v0.8h4.8V34.1z M62.1,35.9h-4.8v0.8h4.8V35.9z M31.6,35.7
	c0-0.3-0.3-0.6-0.6-0.6c-0.3,0-0.6,0.3-0.6,0.6v2.2c0,0.3,0.3,0.6,0.6,0.6c0.3,0,0.6-0.3,0.6-0.6V35.7z M34.8,39.4
	c0.2,0,0.3-0.1,0.4-0.2l1.6-1.6c0.2-0.2,0.2-0.6,0-0.9c-0.2-0.2-0.6-0.2-0.9,0l-1.6,1.6c-0.2,0.2-0.2,0.6,0,0.9
	C34.5,39.4,34.6,39.4,34.8,39.4z M25.1,37.7l1.6,1.6c0.1,0.1,0.3,0.2,0.4,0.2s0.3-0.1,0.4-0.2c0.2-0.2,0.2-0.6,0-0.9L26,36.8
	c-0.2-0.2-0.6-0.2-0.9,0C24.9,37,24.9,37.4,25.1,37.7z M32.9,48.9h4v-7c0-1.9,0.5-3.6,1.5-5.2c-0.2-0.1-0.3-0.2-0.5-0.3l0,0
	l-0.2-0.1c-2.3-1.5-4.1-3.5-5.1-5.9c0,0,0,0,0,0c-0.1-0.2-0.2-0.5-0.3-0.7c0,0,0-0.1,0-0.1c-0.1-0.2-0.1-0.4-0.2-0.7
	c0-0.1,0-0.1-0.1-0.2c-0.1-0.2-0.1-0.4-0.2-0.6c0-0.1,0-0.2-0.1-0.2c0-0.2-0.1-0.4-0.1-0.6c0-0.1,0-0.2,0-0.3c0-0.2,0-0.4-0.1-0.6
	c0-0.1,0-0.2,0-0.3c0-0.3,0-0.6,0-0.9c0-0.2,0-0.4,0-0.6c0-0.1,0-0.2,0-0.3c0-0.1,0-0.2,0-0.3c0-0.1,0-0.2,0-0.3c0-0.1,0-0.1,0-0.2
	c0-0.1,0-0.3,0.1-0.4c0,0,0-0.1,0-0.1c0.2-0.9,0.4-1.8,0.8-2.6c0,0,0,0,0-0.1c0.1-0.1,0.1-0.3,0.2-0.4c0-0.1,0-0.1,0.1-0.2
	c0.1-0.1,0.1-0.2,0.2-0.3c0-0.1,0.1-0.2,0.1-0.3c0-0.1,0.1-0.2,0.1-0.2c0.1-0.1,0.2-0.3,0.2-0.4c0,0,0-0.1,0-0.1
	c0.3-0.5,0.7-1,1.1-1.5l0.2-0.2l0,0C37.2,13.8,40.9,12,45,12c7.5,0,13.5,5.9,13.5,13.2c0,0.8-0.1,1.6-0.2,2.3h4.8
	c1,0,1.9,0.8,1.9,1.9v26.5c0,1-0.8,1.9-1.9,1.9h-6.8c-0.2,0-0.4,0-0.6-0.1V78l0,0v0H47h-4.2h-4.1h-3.5H31v-3.6
	c0.1-3.2,2.7-5.8,5.9-5.8c0,0,0,0,0.1,0V56.1h-5.2v-1.2C29,54.5,27,52.3,27,49.5v-0.6h4.7H32.9z M36.1,17.9c-0.2,0-0.5,0-0.8,0
	c-0.2,0.2-0.3,0.4-0.5,0.6c0,0,0,0,0,0c-0.1,0.1-0.2,0.3-0.3,0.4c0,0,0,0.1-0.1,0.1c-0.1,0.1-0.1,0.2-0.2,0.4c0,0,0,0.1-0.1,0.1
	c-0.1,0.1-0.1,0.2-0.1,0.3c-0.1,0.2-0.2,0.4-0.3,0.6c0,0,0,0,0,0c-0.1,0.1-0.1,0.3-0.2,0.4c0,0,0,0,0,0c-0.1,0.1-0.1,0.3-0.2,0.4
	c0,0,0,0,0,0c-0.2,0.6-0.4,1.2-0.5,1.8c0,0,0,0,0,0.1c0,0.1,0,0.2-0.1,0.4c0,0.1,0,0.1,0,0.2c0,0.1,0,0.2,0,0.3c0,0.1,0,0.2,0,0.3
	c0,0.1,0,0.2,0,0.2c0,0.2,0,0.4,0,0.6c0,0.2,0,0.5,0,0.7c0,0.1,0,0.1,0,0.2c0,0.2,0,0.3,0,0.5c0,0.1,0,0.2,0,0.3
	c0,0.1,0,0.3,0.1,0.4c0,0.1,0,0.2,0,0.3c0,0.1,0.1,0.3,0.1,0.4c0,0.1,0,0.2,0.1,0.3c0,0.1,0.1,0.3,0.1,0.4c0.1,0.2,0.1,0.4,0.2,0.6
	c0,0.1,0,0.1,0.1,0.2c0.1,0.1,0.1,0.3,0.2,0.4c0,0,0,0.1,0.1,0.1c0.1,0.2,0.1,0.3,0.2,0.5c0,0,0,0,0,0c0.7,1.4,1.6,2.6,2.8,3.6
	c0,0,0,0,0.1,0.1c0.1,0.1,0.2,0.2,0.4,0.3c0.1,0,0.1,0.1,0.2,0.1c0.1,0.1,0.2,0.2,0.3,0.3c0.1,0.1,0.2,0.1,0.3,0.2
	c0.1,0.1,0.1,0.1,0.2,0.2c4.8-0.9,8.5-5.2,8.5-10.3c0-2.5-0.7-3.8-1.2-4.3c0,0-0.1-0.1-0.1-0.1l0,0c-0.6-0.6-3-2.4-8.9-2.4
	C36.3,17.9,36.3,17.9,36.1,17.9z M45,13.2c-3.3,0-6.3,1.3-8.5,3.4c6.1,0,8.8,1.9,9.7,2.8l0.1,0.1c0.2,0.2,0.2,0.3,0.2,0.3
	c0.7,0.8,1.5,2.4,1.5,5.1c0,5.2-3.3,9.7-8.1,11.1c1.6,0.7,3.4,1.1,5.2,1.1c6.8,0,12.3-5.4,12.3-11.9S51.8,13.2,45,13.2z M54.5,34.7
	c-0.3,0.3-0.7,0.6-1,0.9c0.4,0.5,0.7,1,1,1.6V34.7z M56.3,56.5h6.8c0.3,0,0.6-0.3,0.6-0.6V29.4c0-0.3-0.3-0.6-0.6-0.6h-5.1
	c-0.5,1.7-1.3,3.2-2.3,4.5v22.6C55.7,56.2,56,56.5,56.3,56.5z M54.5,56c0,0,0-0.1,0-0.1V41.6c-0.1-2-0.8-3.8-2-5.3
	c-2.1,1.4-4.7,2.1-7.4,2.1c-2,0-3.8-0.4-5.5-1.2c-0.9,1.4-1.4,3-1.4,4.6v7h3.4v-5.3c0-2.3,1.9-4.1,4.1-4.1s4.1,1.9,4.1,4.1v8.3
	c0,2.3-1.9,4.1-4.1,4.1h-7.6v12.6c0.3,0.1,0.6,0.1,0.8,0.3c0.7-0.3,1.4-0.4,2.1-0.4c0,0,0.1,0,0.1,0v-9.9h1.3v10.1
	c2.4,0.6,4.2,2.7,4.4,5.3h7.5V56z M36.4,76.8h2.3h4.1H47h7.5v-1.5H47h0h-4.2h0h-4.1h-2.3V76.8z M38.7,74h2.5h0.3h0.4h0.7h0.2h3
	c-0.2-1.9-1.5-3.4-3.2-4c-0.2-0.1-0.4-0.1-0.7-0.2c-0.2,0-0.4-0.1-0.7-0.1c0,0-0.1,0-0.1,0c-0.2,0-0.4,0-0.6,0
	c-0.5,0.1-1,0.2-1.5,0.5c-1.4,0.7-2.4,2.1-2.6,3.7H38.7z M32.4,76.8H35v-1.5h-2.6V76.8z M36.9,69.8c-2.4,0-4.4,1.9-4.7,4.3h3
	c0.2-1.7,1-3.2,2.3-4.2C37.3,69.8,37.1,69.8,36.9,69.8z M32.9,54.8h12.8c1.6,0,2.9-1.3,2.9-2.9v-8.3c0-1.6-1.3-2.9-2.9-2.9
	c-1.6,0-2.9,1.3-2.9,2.9v6.5h-9.9V54.8z M31.7,53.7v-3.5h-3.5C28.5,51.9,29.9,53.3,31.7,53.7z M33.5,40.6l1.4,2.1
	c0.1,0.1,0.1,0.2,0,0.3l-3.7,4.8C31.1,48,31,48,31,48c-0.1,0-0.2,0-0.2-0.1L27,43.1C27,43,27,42.8,27,42.7l1.4-2.1
	c0.1-0.1,0.1-0.1,0.2-0.1h4.6C33.3,40.5,33.4,40.5,33.5,40.6z M33.8,43.2h-1.6l-0.9,3.2L33.8,43.2z M31,46.7l1-3.5H30L31,46.7z
	 M30.6,46.3l-0.9-3.2h-1.6L30.6,46.3z M28.1,42.9h1.5L29,41.6L28.1,42.9z M29.2,41.4l0.6,1.3l0.8-1.3H29.2z M30.1,42.9h1.8L31,41.5
	L30.1,42.9z M31.3,41.4l0.8,1.3l0.6-1.3H31.3z M32.3,42.9h1.5l-0.9-1.3L32.3,42.9z"/>
</svg>
