<?xml version="1.0" encoding="utf-8"?>
<!-- Generator: Adobe Illustrator 18.1.0, SVG Export Plug-In . SVG Version: 6.00 Build 0)  -->
<svg version="1.1" id="Layer_1" xmlns="http://www.w3.org/2000/svg" xmlns:xlink="http://www.w3.org/1999/xlink" x="0px" y="0px"
	 viewBox="0 0 90 90" enable-background="new 0 0 90 90" xml:space="preserve">
<path d="M61.9,33.7c0,0.4-0.3,0.7-0.7,0.7H56c-0.4,0-0.7-0.3-0.7-0.7c0-0.4,0.3-0.7,0.7-0.7h5.2C61.6,33,61.9,33.3,61.9,33.7z
	 M61.2,35.1H56c-0.4,0-0.7,0.3-0.7,0.7c0,0.4,0.3,0.7,0.7,0.7h5.2c0.4,0,0.7-0.3,0.7-0.7C61.9,35.4,61.6,35.1,61.2,35.1z M61.2,37.2
	H56c-0.4,0-0.7,0.3-0.7,0.7c0,0.4,0.3,0.7,0.7,0.7h5.2c0.4,0,0.7-0.3,0.7-0.7C61.9,37.5,61.6,37.2,61.2,37.2z M64.4,28.5v27.9
	c0,1.4-1.1,2.5-2.5,2.5h-6.5c-0.4,0-0.8-0.1-1.1-0.3v22.3H35.7v0h-8.4V77c0.1-3.5,3-6.4,6.4-6.4c0,0,0,0,0.1,0V46.8l-5.5-2.9l0.5-1
	c-2.9-1.6-4-5.1-2.6-8.1l0.4-0.8l5.4,2.8l0.4-0.8l2.3,1.2c0.2-0.4,0.4-0.8,0.7-1.2c-3.1-1.8-5.4-4.5-6.6-7.8
	c-1.3-3.7-1.1-7.6,0.6-11c2.4-4.9,7.4-8,12.9-8c2.3,0,4.5,0.5,6.6,1.5c3.5,1.7,6.2,4.7,7.5,8.3c0.8,2.3,1,4.8,0.7,7.1h4.8
	C63.3,26,64.4,27.1,64.4,28.5z M35,19.1c2.8-0.8,2.8-2.2,2.8-3.1c-1.3-1.5-3.4-2.1-4.2-2.2c-1.1,1.1-4.6,5.5-3.2,9.6
	c0.1,0.4,0.9,0.4,1.1,0.4c1.4,0,3.5-0.8,5.2-2C34.7,20.8,33.3,19.6,35,19.1z M29,40.8l1.5-2.9l-2.9-1.5C27.2,38.1,27.7,39.8,29,40.8
	z M33.8,45.3l1.3,0.7l6.2,3.3c1.5,0.8,3.5,0.2,4.3-1.3c0.8-1.5,0.2-3.5-1.3-4.3L35.5,39l-1.2-0.6l-1.2-0.6l-3,5.6L33.8,45.3z
	 M50.8,35.6c-2.3,1.5-5,2.3-7.9,2.3c0,0,0,0,0,0c-2.2,0-4.3-0.5-6.2-1.4c-0.3,0.4-0.5,0.8-0.7,1.2l9,4.8c2.2,1.2,3,3.9,1.9,6.1
	c-1.2,2.2-3.9,3-6.1,1.9l-5.6-3v23.3c0.3,0.1,0.6,0.2,0.9,0.3c0.7-0.3,1.4-0.4,2.1-0.4V59.8h1.1v10.9c2.9,0.4,5.2,2.9,5.5,5.9h8.2
	V56.4V41.6C52.9,39.4,52.1,37.4,50.8,35.6z M52.9,36.5V34c-0.3,0.3-0.7,0.6-1,0.9C52.2,35.4,52.6,35.9,52.9,36.5z M39.3,72.1
	c-0.2,0-0.4,0-0.6-0.1c-0.1,0-0.3,0-0.4,0c-0.1,0-0.1,0-0.2,0c-0.2,0-0.3,0-0.5,0c-0.6,0.1-1.1,0.3-1.6,0.5
	c-0.3,0.2-0.6,0.4-0.9,0.6c-0.6,0.5-1,1-1.3,1.7c-0.3,0.5-0.5,1.1-0.5,1.8h10.1C43.1,74.3,41.4,72.5,39.3,72.1z M31.7,77.9h-2.8v1.7
	h2.8V77.9z M31.9,76.6c0.2-1.6,0.8-3,1.9-4c0.2-0.2,0.4-0.4,0.6-0.5C34.2,72,34,72,33.8,72c0,0,0,0-0.1,0c-2.6,0-4.7,2-5.1,4.6H31.9
	z M52.9,77.9H33.3v1.7h19.6V77.9z M54.6,29.3c1.5-3.1,1.7-6.7,0.5-10c-1.2-3.3-3.6-6-6.8-7.6c-1.9-0.9-3.9-1.4-6-1.4
	c-1.7,0-3.4,0.3-4.9,0.9c0.3,0.1,0.5,0.2,0.5,0.2c5.9,2.9,7.5,6,7.9,7c0,0,0,0.1,0,0.1C45.9,18.9,46,19,46,19c0.2,0.7,0.4,2.5-1,5.3
	c-2.5,5.1-8,7.6-13.3,6.5c1.3,1.9,3.1,3.4,5.2,4.4c1.9,0.9,3.9,1.4,6,1.4C48,36.6,52.5,33.8,54.6,29.3z M63,28.5
	c0-0.6-0.5-1.1-1.1-1.1h-5.1c-0.2,0.9-0.5,1.7-1,2.6c-0.5,0.9-1,1.8-1.6,2.6v9.1v14.8c0,0.6,0.5,1.1,1.1,1.1h6.5
	c0.6,0,1.1-0.5,1.1-1.1V28.5z"/>
</svg>
