<?xml version="1.0" encoding="utf-8"?>
<!-- Generator: Adobe Illustrator 18.1.0, SVG Export Plug-In . SVG Version: 6.00 Build 0)  -->
<svg version="1.1" id="Layer_1" xmlns="http://www.w3.org/2000/svg" xmlns:xlink="http://www.w3.org/1999/xlink" x="0px" y="0px"
	 viewBox="0 0 90 90" enable-background="new 0 0 90 90" xml:space="preserve">
<path d="M70.8,32.2c0,0.4-0.3,0.6-0.6,0.6h-5c-0.4,0-0.7-0.3-0.7-0.6c0-0.4,0.3-0.7,0.7-0.7h5C70.5,31.5,70.8,31.8,70.8,32.2z
	 M70.2,33.5h-5c-0.4,0-0.7,0.3-0.7,0.6c0,0.4,0.3,0.7,0.7,0.7h5c0.4,0,0.6-0.3,0.6-0.7C70.8,33.8,70.5,33.5,70.2,33.5z M70.2,35.5
	h-5c-0.4,0-0.7,0.3-0.7,0.7c0,0.4,0.3,0.6,0.7,0.6h5c0.4,0,0.6-0.3,0.6-0.6C70.8,35.8,70.5,35.5,70.2,35.5z M57.2,42.7v13.6H56v5.3
	l-0.9,0c-3-0.1-5.4-2.4-5.8-5.3h-0.8V42.7c0-2.4,2-4.4,4.4-4.4S57.2,40.3,57.2,42.7z M54.2,56.5h-3.1c0.3,1.6,1.6,2.8,3.1,3.2V56.5z
	 M49.8,42.7v12.1h6.1V42.7c0-1.7-1.4-3.1-3.1-3.1S49.8,41,49.8,42.7z M73.2,28.1v27c0,1.3-1.1,2.4-2.4,2.4h-6.3
	c-0.4,0-0.8-0.1-1.2-0.3l0,6.6C63,65,61.9,66.6,58.7,67L54,67v0h-4.7h-5h-3.7v10.6h0v3.3h-6.8h-4.4h-4.3h-3.7h-4.4V77
	c0.1-3.4,2.9-6.2,6.2-6.2c0.8,0,1.5,0.2,2.2,0.4c0.6-0.2,1.2-0.4,1.9-0.4V60.2c0-3.5,3.4-4.5,5.2-4.5h3.2v0c3.1,0,6.7,0,8.1,0v-15
	c0-2,0.6-3.8,1.6-5.5c-0.6-0.3-1.1-0.7-1.6-1.1c-6.2-4.8-7.4-13.7-2.7-19.7c3.3-4.2,8.6-6.1,13.9-5c2.2,0.5,4.1,1.4,5.9,2.8
	c3,2.3,4.9,5.7,5.4,9.4c0.2,1.4,0.2,2.7,0,4h4.7C72.1,25.7,73.2,26.8,73.2,28.1z M40.6,20.7c0,0.4,0.7,0.5,0.9,0.6
	c1.3,0.3,3.5,0,5.3-0.9c-1.6-1.3-2.7-2.7-1-2.8c2.8-0.2,3.1-1.5,3.2-2.4c-0.9-1.7-2.8-2.6-3.5-2.9C44.4,13,40.1,16.5,40.6,20.7z
	 M28.3,70.9c0.6,0.1,1.1,0.3,1.6,0.5V60.5c0-1.6,0.6-2.7,1.4-3.4c-1.2,0.2-3.1,0.9-3.1,3.2V70.9z M22.5,76.6h2.4h2.2h0.8h1.3H30h0.6
	h1.8c0-0.1,0-0.2,0-0.2c-0.2-0.9-0.6-1.8-1.1-2.5c-0.3-0.4-0.7-0.8-1.2-1c-0.5-0.3-1.1-0.5-1.6-0.6c-0.3-0.1-0.6-0.1-0.9-0.1
	c-0.1,0-0.2,0-0.3,0c-0.1,0-0.2,0-0.3,0c-0.6,0.1-1.1,0.3-1.6,0.5C23.8,73.4,22.7,74.9,22.5,76.6z M21,77.9h-2.7v1.6H21V77.9z
	 M21.3,76.6c0.2-1.8,1.1-3.4,2.4-4.4c-0.2,0-0.4-0.1-0.7-0.1c-2.5,0-4.6,2-4.9,4.5H21.3z M39.2,77.9h-5.5h0h-4.4h0h-4.3h-2.4v1.6
	h2.4h4.3h4.4h5.5V77.9z M62.2,55.6c0-0.2-0.1-0.3-0.1-0.5V39.8c-0.2-1.7-0.9-3.4-2-4.8c-3,2-6.8,2.7-10.6,2
	c-1.1-0.2-2.2-0.6-3.2-1.1c-0.9,1.5-1.5,3.2-1.5,5v16.1h-0.6l0,0.1c-0.4,0-9.3,0-10.3,0c0,0-2.9,0.6-2.9,3.5v11.7
	c1.3,1,2.2,2.5,2.4,4.3h5.8V65.8h4.9H54h4.7c1.9-0.2,3.1-1,3.5-2.3V55.6z M62.1,35.9v-2.5c-0.3,0.3-0.7,0.6-1,0.9
	C61.5,34.8,61.8,35.3,62.1,35.9z M64.9,21.8c-0.5-3.4-2.2-6.4-5-8.5c-1.6-1.2-3.4-2.1-5.4-2.5c-1.6-0.3-3.3-0.3-4.8-0.1
	c0.3,0.2,0.4,0.3,0.4,0.3c5,3.9,5.9,7.2,6.1,8.2c0,0,0,0.1,0,0.1c0,0.2,0,0.3,0,0.3c0,0.7-0.1,2.4-2,4.8c-3.4,4.3-9.1,5.6-13.8,3.5
	c0.8,2,2.2,3.8,4,5.2c1.6,1.2,3.4,2.1,5.4,2.5c4.8,1,9.6-0.7,12.6-4.5C64.4,28.5,65.3,25.2,64.9,21.8z M71.9,28.1
	c0-0.6-0.5-1.1-1.1-1.1h-5c-0.5,1.8-1.3,3.5-2.4,5v23.1c0,0.6,0.5,1.1,1.1,1.1h6.3c0.6,0,1.1-0.5,1.1-1.1V28.1z"/>
</svg>
