<?xml version="1.0" encoding="utf-8"?>
<!-- Generator: Adobe Illustrator 18.1.0, SVG Export Plug-In . SVG Version: 6.00 Build 0)  -->
<svg version="1.1" id="Layer_1" xmlns="http://www.w3.org/2000/svg" xmlns:xlink="http://www.w3.org/1999/xlink" x="0px" y="0px"
	 viewBox="0 0 90 90" enable-background="new 0 0 90 90" xml:space="preserve">
<path fill="#231F20" d="M39.7,39.4C39.7,39.4,39.7,39.4,39.7,39.4C39.7,39.4,39.7,39.4,39.7,39.4c6,0,10.9-4.9,10.9-11
	c0-2.9-0.9-4.2-1.3-4.7c-1.7-2.7-8-2.9-9.3-2.9c-0.2,0-0.3,0-0.3,0c-6.1,0-8.6,1.9-9.3,2.6c0,0,0,0-0.1,0.1
	c-0.1,0.1-0.2,0.2-0.2,0.2c-0.4,0.5-1.3,1.9-1.3,4.7C28.8,34.5,33.7,39.4,39.7,39.4z M31.1,24.5L31.1,24.5L31.1,24.5
	c0,0,0.1-0.1,0.1-0.1l0,0c0.6-0.5,2.8-2.3,8.5-2.3l0,0l0,0c0,0,0.1,0,0.2,0c3.4,0,7.3,0.7,8.3,2.3l0,0.1l0,0.1c0.4,0.5,1,1.6,1,3.9
	c0,5.4-4.3,9.8-9.6,9.8l0,0h0l0,0l0,0c-5.3,0-9.6-4.4-9.6-9.8C30.1,26.1,30.7,24.9,31.1,24.5z M42.3,49.9h-4.8V49h4.8V49.9z
	 M51.2,61.1l-0.3,0l0,0L51.2,61.1l0-2.3c2.9-0.2,5.2-2.6,5.4-5.5l0-6.1c0-4.3-2.3-8.2-5.8-10.8c1.6-2.1,2.5-4.8,2.5-7.6
	c0-7.3-6.1-13.2-13.5-13.2s-13.5,5.9-13.5,13.2c0,2.8,0.9,5.4,2.5,7.6c-3.6,2.6-5.9,6.5-5.9,10.8v6.1h0c0.1,1.6,0.8,3,2,4
	c-0.3,0.1-0.6,0.2-0.9,0.4L23.3,58l0,0l-2.5,1.2l0,0l0,0l0.5,1.2l0.1,0l3.6,7h-9.1v1.3h9.8l0.5,1l2-1h0.7v10.1h0v2.7h11.8v-2.7v-0.6
	h0v-9.5h0.6v0h25.4v-1.3H47.7C49.8,66.1,51.2,63.8,51.2,61.1z M27.5,28.7c0-6.6,5.5-11.9,12.3-11.9S52,22.2,52,28.7
	s-5.5,11.9-12.3,11.9S27.5,35.3,27.5,28.7z M24,53v-5.9c0-3.9,2.1-7.5,5.4-9.9c2.5,2.8,6.2,4.6,10.3,4.6c4.1,0,7.8-1.8,10.3-4.6
	c3.3,2.4,5.4,5.9,5.4,9.9V53c-0.1,2.5-2.1,4.5-4.6,4.5v0H50v1.5l-4.3-6.7H50h1.3h0v-1.3h0v-3.3H50v3.3h-4.6v-4.7H34.8v4.7h-4.6v-3.3
	h-1.3v3.3v1.3h1.3h6.5l-10.3,4.5C25,56.1,24.1,54.7,24,53z M44.1,47.7v2.2l-0.4-0.6L39.8,51h-2.2v0.1H36v-3.4H44.1z M26.6,67.9l-4-8
	l1.4-0.6l4,8L26.6,67.9z M29.2,66.8l-0.1,0.1l-4-8l1.3-0.6c1.8-0.1,3.6,0.8,4.5,2.5C31.9,62.9,31.2,65.4,29.2,66.8z M34.8,72
	c-1.9,0-3.6,0.9-4.7,2.4v-6.6l8.6-3.7l0.7,1.5v8.7C38.3,72.9,36.6,72,34.8,72z M39.4,77.3v0.2h-9.3c0.3-2.4,2.3-4.3,4.6-4.3
	C37.1,73.2,39,75,39.4,77.3z M39.4,80.3h-9.4v-1.5h9.4V80.3z M41.3,67.4L41.3,67.4l-0.6,0v-2.1l-1.4-2.9l-7.5,3.2
	c0.9-1.7,1-3.7,0.1-5.4c-0.7-1.4-2-2.4-3.4-2.9l14.7-6.4L50,61.5c-0.2,3.2-2.8,5.7-6.1,5.9H41.3z M64.4,8.5c-5.4,0-9.8,4.4-9.8,9.8
	c0,5.4,4.4,9.8,9.8,9.8c5.4,0,9.8-4.4,9.8-9.8C74.2,12.9,69.8,8.5,64.4,8.5z M64.4,26.8c-4.7,0-8.5-3.8-8.5-8.5
	c0-4.7,3.8-8.5,8.5-8.5c4.7,0,8.5,3.8,8.5,8.5C72.9,23,69.1,26.8,64.4,26.8z M68.8,18.7c0,0.4-0.3,0.7-0.7,0.7h-3.9
	c-0.3,0-0.6-0.2-0.7-0.4c-0.1-0.1-0.1-0.2-0.1-0.3v-5.8c0-0.3,0.3-0.6,0.6-0.6c0.3,0,0.6,0.3,0.6,0.6v5.1h3.6
	C68.5,17.9,68.8,18.2,68.8,18.7z"/>
</svg>
