<?xml version="1.0" encoding="utf-8"?>
<!-- Generator: Adobe Illustrator 18.1.0, SVG Export Plug-In . SVG Version: 6.00 Build 0)  -->
<svg version="1.1" id="Layer_1" xmlns="http://www.w3.org/2000/svg" xmlns:xlink="http://www.w3.org/1999/xlink" x="0px" y="0px"
	 viewBox="0 0 90 90" enable-background="new 0 0 90 90" xml:space="preserve">
<path d="M45,35.5L45,35.5c6.8,0,12.4-5.6,12.4-12.5c0-2.9-0.8-4.6-1.5-5.4c-2-3.1-8.6-3.3-10.6-3.3c-0.2,0-0.3,0-0.3,0
	c-6.7,0-9.6,2.1-10.6,3l-0.1,0.1c-0.2,0.2-0.2,0.3-0.2,0.3c-0.7,0.9-1.5,2.5-1.5,5.5C32.6,29.9,38.2,35.5,45,35.5z M34.8,18
	c0,0,0.1-0.1,0.2-0.2l0.1-0.1c0.7-0.6,3.4-2.7,9.9-2.7c0,0,0.1,0,0.3,0c1.3,0,8.1,0.1,9.9,2.9l0,0c0.5,0.6,1.3,2.1,1.3,4.9
	c0,6.4-5.2,11.6-11.5,11.6h0c-6.3,0-11.5-5.2-11.5-11.6C33.5,20.1,34.3,18.7,34.8,18z M35.7,41.2V39v-1.3c0-0.3,0.3-0.6,0.6-0.6
	c0.3,0,0.6,0.3,0.6,0.6V39v2.2c0,0.3-0.3,0.6-0.6,0.6C36,41.8,35.7,41.5,35.7,41.2z M53.1,41.2v-3.5c0-0.3,0.3-0.6,0.6-0.6
	c0.3,0,0.6,0.3,0.6,0.6v3.5c0,0.3-0.3,0.6-0.6,0.6C53.4,41.8,53.1,41.5,53.1,41.2z M63.7,48.2c-0.1-0.1-0.1-0.1-0.2-0.2v-4.5
	c0-2-0.4-3.8-1.2-5.6V25c0-1.1-0.9-2-2-2h-0.4C59.6,15.1,53,8.9,45,8.9c-8,0-14.6,6.3-14.8,14.1h-0.5c-1.1,0-2,0.9-2,2v12.9
	c-0.8,1.8-1.2,3.7-1.2,5.6V48c-0.1,0.1-0.1,0.1-0.2,0.2c-0.4,0.5-0.5,1-0.5,1.6l0.6,5c0.1,1.1,1.1,1.9,2.2,1.9c0.1,0,0.2,0,0.3,0
	c0.2,0,0.4-0.1,0.6-0.1v9.2c0,1.6,1.3,3,3,3h0.4v9.4h0v2.9h11.6h1.3h11.6v-4c0-0.1,0-0.1,0-0.2v-8.1h0.4c1.6,0,3-1.3,3-3v-9.2
	c0.2,0,0.3,0,0.6,0.1c0.1,0,0.2,0,0.2,0h0c1.1,0,2-0.8,2.2-1.9l0.6-5C64.2,49.2,64.1,48.7,63.7,48.2z M60.2,24.3
	c0.4,0,0.7,0.3,0.7,0.7v10.5c-1-1.4-2.3-2.7-3.8-3.8c1.5-2.1,2.5-4.6,2.7-7.3H60.2z M45,10.2c7.4,0,13.4,5.9,13.4,13.1
	c0,7.2-6,13.1-13.4,13.1c-7.4,0-13.4-5.9-13.4-13.1C31.6,16.1,37.6,10.2,45,10.2z M29.1,25c0-0.4,0.3-0.7,0.7-0.7h0.5
	c0.2,2.7,1.1,5.2,2.7,7.3c-1.5,1.1-2.8,2.4-3.8,3.8V25z M33.7,32.7c2.7,3.1,6.8,5.1,11.3,5.1c4.5,0,8.6-2,11.3-5.1
	c1.9,1.4,3.4,3.1,4.4,5c1,1.8,1.5,3.8,1.5,5.8v3.9c-0.2,0-0.6-0.1-0.7-0.1c-0.2,0-0.4,0-0.5,0c-0.1,0-0.2,0-0.3,0V42
	c0-1.6-1.3-3-3-3h-2.4v2.2c0,0.8-0.7,1.5-1.5,1.5c-0.8,0-1.5-0.7-1.5-1.5V39h-0.8h-0.6H37.8v2.2c0,0.8-0.7,1.5-1.5,1.5
	c-0.8,0-1.5-0.7-1.5-1.5V39h-2.4c-1.6,0-3,1.3-3,3v5.3c-0.1,0-0.2,0-0.3,0c-0.2,0-0.4,0-0.5,0c-0.1,0-0.5,0.1-0.7,0.1v-3.9
	C27.8,39.3,30,35.4,33.7,32.7z M28.7,55.5c-0.5,0.1-1-0.3-1.1-0.8l-0.6-5c0-0.3,0-0.5,0.2-0.7c0.2-0.2,0.4-0.3,0.7-0.4
	c0,0,0.7-0.1,0.8-0.1c0.1,0,0.3,0,0.4,0c1.8,0,3.2,1.3,3.4,3.1c0.2,1.7-0.9,3.3-2.5,3.7l0,0C29.8,55.3,29.2,55.4,28.7,55.5z
	 M44.3,79.8H34.1v-1.6h10.3V79.8z M34.1,76.8c0.3-2.6,2.5-4.7,5.1-4.7c2.6,0,4.8,2,5.1,4.7H34.1z M39.2,70.8c-2.1,0-3.9,1-5.1,2.6
	v-4.6h10.3v4.6C43.2,71.8,41.3,70.8,39.2,70.8z M55.9,79.8H45.7v-1.6h10.3V79.8z M45.7,76.8c0.3-2.6,2.5-4.7,5.1-4.7
	c2.6,0,4.8,2,5.1,4.7H45.7z M55.9,73.4c-1.2-1.6-3-2.6-5.1-2.6c-2.1,0-4,1.1-5.2,2.7v-4.7h5.1h1.5h3.6V73.4z M57.7,66.9h-5.4h-1.5
	H32.3c-0.6,0-1-0.5-1-1v-9.8c1.7-0.9,2.6-2.7,2.4-4.7c-0.2-1.6-1.1-2.9-2.4-3.6v-1.5h19.4h0.8h7.1v1.5c-1.3,0.7-2.2,2-2.4,3.6
	c-0.2,1.9,0.8,3.8,2.4,4.7v9.8C58.7,66.4,58.2,66.9,57.7,66.9z M63,49.7l-0.6,5c-0.1,0.5-0.5,0.8-0.9,0.8c0,0-0.1,0-0.1,0
	c-0.5-0.1-1.2-0.2-1.3-0.2l0,0c-1.7-0.5-2.7-2-2.5-3.7c0.2-1.9,1.9-3.3,3.8-3c0.1,0,0.8,0.1,0.8,0.1c0.3,0,0.5,0.2,0.6,0.4
	C62.9,49.2,63,49.4,63,49.7z"/>
</svg>
