<?xml version="1.0" encoding="utf-8"?>
<!-- Generator: Adobe Illustrator 18.1.0, SVG Export Plug-In . SVG Version: 6.00 Build 0)  -->
<svg version="1.1" id="Layer_1" xmlns="http://www.w3.org/2000/svg" xmlns:xlink="http://www.w3.org/1999/xlink" x="0px" y="0px"
	 viewBox="0 0 90 90" enable-background="new 0 0 90 90" xml:space="preserve">
<path d="M48.6,44.7v0.5h-6.4v-0.5H48.6z M51.8,41.6V46l3.6,0V43h1.3v3v0.7v0.6L49,47.3v5.2l7.9,0l5.3-0.1v-6.8v-0.9v-1.3
	c0-1.3-0.2-2.5-0.6-3.7c-0.2-0.6-0.4-1.2-0.7-1.7c-1-2.1-2.6-3.9-4.6-5.4c-2.7,3.1-6.8,5.1-11.3,5.1c-0.2,0-0.4,0-0.7,0
	c-4.3-0.2-8.1-2.1-10.6-5.1c-2,1.5-3.6,3.3-4.7,5.4c-0.3,0.6-0.5,1.1-0.7,1.7c-0.4,1.2-0.6,2.4-0.6,3.7v2.2v14.7h5.3V48.6h1.3v24.8
	c1.2-1.6,3-2.6,5.1-2.6c2,0,3.9,1,5.1,2.5v-9.7h1.5v9.7c1.2-1.6,3-2.6,5.1-2.6c2.1,0,3.9,1,5.1,2.6V52.9l1.3,0V77c0,0.1,0,0.1,0,0.2
	v4H46.1h-1.3H33.1v-2.9h0V67c-2.8-0.3-4.9-2.5-5.2-5.3h-1.4V43.5c0-2,0.4-3.9,1.2-5.6V25c0-1.1,0.9-2,2-2h0.5c0-0.1,0-0.2,0-0.2
	c0.3-8,7.2-14.2,15.4-13.8c4,0.2,7.6,1.8,10.3,4.7c2.4,2.6,3.8,5.9,3.9,9.4h0.4c1.1,0,2,0.9,2,2v12c0.8,1.7,1.2,3.6,1.2,5.6v11.3
	l-6.6,0h-5.1V57h0h-0.5H39.1V41.6H51.8z M46.1,76.8h10.2c-0.3-2.6-2.5-4.7-5.1-4.7C48.6,72.1,46.4,74.1,46.1,76.8L46.1,76.8z
	 M46.1,79.8h10.3v-1.6H46.1V79.8z M34.5,76.8h10.2v-0.2c-0.4-2.5-2.5-4.5-5.1-4.5C37,72.1,34.8,74.1,34.5,76.8z M34.4,79.8h10.3
	v-1.6H34.4V79.8z M29.2,61.9c0.4,2,1.9,3.5,3.9,3.8v-3.8H29.2z M32.9,31.6c-1.5-2.1-2.5-4.6-2.7-7.3h-0.5c-0.4,0-0.7,0.3-0.7,0.7
	v10.5C30.1,34,31.4,32.7,32.9,31.6z M35.2,31.7c2,2,4.6,3.2,7.3,2.9l0,0c3-0.3,5.4-2.2,6.9-4.9c0.2-0.4,0.4-0.8,0.6-1.2
	c0.5-1.3,0.8-2.6,0.9-4.1c0-0.2,0-0.5,0-0.7c0-0.2,0-0.5,0-0.7c0-0.3,0-0.6-0.1-0.9c-0.3-2.8-1.2-4.2-1.7-4.8c0,0-0.1-0.1-0.2-0.2
	L49,17c-0.6-0.6-3.1-2.4-8.5-1.8c0,0-0.1,0-0.2,0c-1.1,0.1-6.7,0.9-7.9,3.8l0,0c-0.1,0.2-0.2,0.4-0.3,0.6c-0.1,0.5-0.3,1-0.3,1.6
	c-0.1,0.5-0.1,1-0.1,1.6c0,0.2,0,0.4,0,0.7c0,0.2,0,0.3,0,0.5c0,0.1,0,0.2,0,0.2c0.3,2.4,1.2,4.6,2.5,6.4
	C34.6,31,34.9,31.4,35.2,31.7z M58.4,24.3c0-0.1,0-0.3,0-0.4c0-0.1,0-0.2,0-0.3c0-0.2,0-0.5,0-0.7c-0.1-3.1-1.3-6.1-3.5-8.4
	c-2.4-2.6-5.7-4.1-9.3-4.2c-0.2,0-0.4,0-0.6,0c-4.9,0-9.2,2.5-11.5,6.4c2.2-1.5,5.5-2,6.7-2.1c0.1,0,0.2,0,0.2,0
	c5.6-0.6,8.3,1.2,9.2,2l0.1,0c0.1,0.1,0.2,0.2,0.2,0.2c0.7,0.8,1.5,2.3,1.8,5.2c0,0.3,0.1,0.7,0.1,1c0,0.2,0,0.5,0,0.7
	c0,0.2,0,0.5,0,0.7c-0.1,1.5-0.4,3-0.9,4.3c-0.2,0.4-0.4,0.8-0.6,1.2c-1.6,3.1-4.3,5.2-7.6,5.5l0,0c-1.2,0.1-2.4,0-3.6-0.4
	c1.6,0.8,3.5,1.3,5.4,1.4c4.3,0.2,8.1-1.6,10.7-4.5c0.3-0.3,0.6-0.7,0.8-1.1C57.4,29,58.2,26.7,58.4,24.3z M60.9,25
	c0-0.4-0.3-0.7-0.7-0.7h-0.5c-0.2,2.7-1.1,5.2-2.6,7.3c1.5,1.1,2.8,2.4,3.8,3.8V25z M51.3,46v-3.8H39.7v14.4h11.6v-2.6h-2.1H49h-6.5
	v-0.7c0-1.1,0.3-2.1,0.8-3h-1.1v-0.5h1.4c0.6-0.8,1.4-1.5,2.4-1.9h-3.8v-0.5h5.8v0c0,0,0.1,0,0.1,0v-0.6V46L51.3,46z M43.9,52.5h3.8
	v-3.9C45.7,49,44.2,50.6,43.9,52.5z"/>
</svg>
