<?xml version="1.0" encoding="utf-8"?>
<!-- Generator: Adobe Illustrator 18.1.0, SVG Export Plug-In . SVG Version: 6.00 Build 0)  -->
<svg version="1.1" id="Layer_1" xmlns="http://www.w3.org/2000/svg" xmlns:xlink="http://www.w3.org/1999/xlink" x="0px" y="0px"
	 viewBox="0 0 90 90" enable-background="new 0 0 90 90" xml:space="preserve">
<path d="M54.8,41.7c2.2,0,4.1-1.8,4.1-4.1s-1.8-4.1-4.1-4.1c-2.2,0-4.1,1.8-4.1,4.1S52.5,41.7,54.8,41.7z M54.8,40.5
	c-1.6,0-2.9-1.3-2.9-2.9s1.3-2.9,2.9-2.9c1.6,0,2.9,1.3,2.9,2.9S56.3,40.5,54.8,40.5z M57,22.1c0,7,5.7,12.7,12.7,12.7
	s12.7-5.7,12.7-12.7S76.7,9.4,69.7,9.4S57,15.1,57,22.1z M58.2,22.1c0-6.4,5.2-11.5,11.5-11.5s11.5,5.2,11.5,11.5
	s-5.2,11.5-11.5,11.5S58.2,28.4,58.2,22.1z M7.6,80.6h49.6l-0.2-1c-0.3-1.6-0.7-3.2-1.4-4.6V57.6c0-1.5-1.2-2.7-2.7-2.7h-0.6
	C51.9,44.4,43.1,36,32.3,36s-19.6,8.4-19.9,18.9h-0.6c-1.5,0-2.7,1.2-2.7,2.7V75c-0.7,1.5-1.1,3-1.4,4.6L7.6,80.6z M12.5,56.8
	c0.3,3.6,1.5,7,3.6,9.8c-2,1.5-3.7,3.2-5.1,5.2V57.6c0-0.5,0.4-0.9,0.9-0.9H12.5z M50.4,55.4c0,4.1-1.4,7.8-3.8,10.8
	c-3.3,4.1-8.5,6.8-14.2,6.8c-5.8,0-10.9-2.6-14.2-6.8c-2.4-3-3.8-6.7-3.8-10.8c0-9.7,8.1-17.6,18-17.6S50.4,45.7,50.4,55.4z
	 M53.7,71.8c-1.4-1.9-3.1-3.7-5.1-5.2c2-2.8,3.3-6.2,3.6-9.8h0.7c0.5,0,0.9,0.4,0.9,0.9V71.8z M9.7,78.8c1-4.3,3.7-8.1,7.5-10.8
	c3.6,4.2,9.1,6.8,15.1,6.8c6.1,0,11.5-2.7,15.1-6.8c3.8,2.8,6.5,6.5,7.5,10.8H9.7z M45.3,65.5c2.3-2.9,3.7-6.6,3.7-10.6
	c0-4-1.1-6.2-2.1-7.3c0,0-0.1-0.1-0.3-0.3l-0.1-0.1c-1.3-1.2-5.1-4-14.2-4c0,0-0.1,0-0.4,0c-2.7,0-11.6,0.3-14.2,4.5
	c-0.9,1.2-2,3.4-2,7.3c0,4.1,1.4,7.8,3.8,10.7c3.1,3.7,7.7,6.1,12.8,6.1l0,0C37.6,71.7,42.2,69.3,45.3,65.5z M47.8,54.9
	c0,3.8-1.3,7.2-3.5,9.9c-2.8,3.5-7.1,5.7-11.9,5.7h0c-4.8,0-9.1-2.2-11.9-5.7c-2.2-2.7-3.5-6.1-3.5-9.9c0-3.8,1.1-5.7,1.8-6.6l0-0.1
	c2.4-3.7,11.5-3.9,13.2-3.9c0.2,0,0.4,0,0.4,0c8.8,0,12.4,2.8,13.3,3.7l0.1,0.1c0.1,0.1,0.2,0.2,0.2,0.2
	C46.7,49.2,47.8,51.1,47.8,54.9z"/>
</svg>
